<?xml version="1.0" encoding="UTF-8" standalone="no"?>
<!-- Created with Inkscape (http://www.inkscape.org/) -->

<svg
   width="55.618553mm"
   height="53.250305mm"
   viewBox="0 0 55.618553 53.250305"
   version="1.1"
   id="svg5"
   xml:space="preserve"
   inkscape:version="1.2 (1:1.2+202205231507+da316b6974)"
   sodipodi:docname="kitsvgFolw.svg"
   inkscape:export-filename="../Documentos/ESC/flowtrack/src/assets/symbol/DcOn.svg"
   inkscape:export-xdpi="96"
   inkscape:export-ydpi="96"
   xmlns:inkscape="http://www.inkscape.org/namespaces/inkscape"
   xmlns:sodipodi="http://sodipodi.sourceforge.net/DTD/sodipodi-0.dtd"
   xmlns="http://www.w3.org/2000/svg"
   xmlns:svg="http://www.w3.org/2000/svg"><sodipodi:namedview
     id="namedview7"
     pagecolor="#ffffff"
     bordercolor="#666666"
     borderopacity="1.0"
     inkscape:showpageshadow="2"
     inkscape:pageopacity="0.0"
     inkscape:pagecheckerboard="0"
     inkscape:deskcolor="#d1d1d1"
     inkscape:document-units="mm"
     showgrid="true"
     inkscape:zoom="0.55118716"
     inkscape:cx="128.81287"
     inkscape:cy="788.29849"
     inkscape:window-width="1920"
     inkscape:window-height="1016"
     inkscape:window-x="1920"
     inkscape:window-y="27"
     inkscape:window-maximized="1"
     inkscape:current-layer="layer1"
     showguides="true"><inkscape:grid
       type="xygrid"
       id="grid9" /></sodipodi:namedview><defs
     id="defs2" /><g
     inkscape:label="Camada 1"
     inkscape:groupmode="layer"
     id="layer1"
     transform="translate(125.23114,-203.07818)"><path
       id="rect400"
       style="fill:#000000;stroke:none;stroke-width:0.0876945"
       d="m -211.18644,112.43892 h 2.49346 l 3.69061,5.5319 9.76402,-0.0563 0.0277,-3.15917 c 0,0 -17.31065,-1.66058 -16.62548,-21.75621 0.68518,-20.095635 21.85379,-22.579965 28.22588,-22.530715 5.62256,0.0434 28.8412,2.52155 29.24326,22.401885 0.40206,19.88033 -16.37385,22.29287 -16.45976,21.81227 l -0.0144,3.31256 9.78618,0.0381 3.84662,-5.59494 2.52689,0.001 c 0.18498,7e-5 0.33389,0.14892 0.33389,0.3339 v 9.5175 c 0,0.18498 -0.14891,0.3339 -0.33389,0.3339 l -24.01684,-0.0108 -0.0478,-8.76178 c -0.0232,0.0933 16.03928,-4.17745 15.00179,-20.48297 -1.03749,-16.305524 -11.85914,-19.241604 -19.10605,-18.909584 -7.57595,0.3471 -18.789,2.61864 -19.37981,18.462224 -0.59081,15.84358 14.74083,21.06359 14.86728,20.81479 l -0.0352,8.86971 -23.78829,0.0184 c -0.18498,1.4e-4 -0.3339,-0.14892 -0.3339,-0.3339 v -9.5175 c 0,-0.18498 0.14892,-0.3339 0.3339,-0.3339 z"
       sodipodi:nodetypes="scccczszccccsssscczszccsssss"
       inkscape:export-filename="omega.svg"
       inkscape:export-xdpi="96"
       inkscape:export-ydpi="96" /><g
       id="g1770"
       transform="translate(-175.70525,-87.930009)"
       inkscape:export-filename="../Documentos/ESC/flowtrack/src/assets/symbol/acOn.svg"
       inkscape:export-xdpi="96"
       inkscape:export-ydpi="96"><ellipse
         style="fill:#00ff00;stroke:none;stroke-width:0.27679"
         id="path164"
         cx="91.259995"
         cy="207.18266"
         rx="27.809277"
         ry="26.625156" /><rect
         style="fill:#00ff00;stroke:none;stroke-width:0.208745"
         id="rect281"
         width="2.9755108"
         height="12.08111"
         x="89.828331"
         y="165.43274"
         ry="0.85012293" /><rect
         style="fill:#00ff00;stroke:none;stroke-width:0.208745"
         id="rect281-3"
         width="2.9755108"
         height="12.08111"
         x="89.906952"
         y="238.39232"
         ry="0.85012293" /><rect
         style="fill:#00ff00;stroke:none;stroke-width:0.208745"
         id="rect281-6"
         width="2.9755108"
         height="12.08111"
         x="-209.20308"
         y="122.48482"
         ry="0.85012293"
         transform="rotate(-90)" /><rect
         style="fill:#00ff00;stroke:none;stroke-width:0.208745"
         id="rect281-6-5"
         width="2.9755108"
         height="12.08111"
         x="-209.06311"
         y="47.620941"
         ry="0.85012293"
         transform="rotate(-90)" /><rect
         style="fill:#00ff00;stroke:none;stroke-width:0.208745"
         id="rect281-6-3"
         width="2.9755108"
         height="12.08111"
         x="211.94218"
         y="35.889259"
         ry="0.85012293"
         transform="rotate(45.764338)" /><rect
         style="fill:#00ff00;stroke:none;stroke-width:0.208745"
         id="rect281-6-3-5"
         width="2.9755108"
         height="12.08111"
         x="208.82913"
         y="110.57909"
         ry="0.85012293"
         transform="rotate(45.764338)" /><rect
         style="fill:#00ff00;stroke:none;stroke-width:0.208745"
         id="rect281-6-3-6"
         width="2.9755108"
         height="12.08111"
         x="-76.529228"
         y="243.02702"
         ry="0.85012293"
         transform="rotate(-44.235662)" /><rect
         style="fill:#00ff00;stroke:none;stroke-width:0.208745"
         id="rect281-6-3-6-9"
         width="2.9755108"
         height="12.08111"
         x="-81.696358"
         y="169.17984"
         ry="0.85012293"
         transform="rotate(-44.235662)" /><path
         style="fill:#ff6600;stroke:none;stroke-width:0.250724px;stroke-linecap:butt;stroke-linejoin:miter;stroke-opacity:1"
         d="m 98.671771,190.22126 -6.048188,14.9887 7.409427,0.0742 c -4.012152,6.83086 -8.077482,13.62854 -12.126223,20.43652 l 1.239013,-15.06414 -3.450769,0.0627 0.151318,-20.49978 c 4.275136,0.0146 8.550273,0.007 12.825422,9.9e-4 z"
         id="path1434"
         sodipodi:nodetypes="cccccccc" /></g><g
       id="g2001"
       transform="translate(-138.93933,82.86336)"
       inkscape:export-filename="../Documentos/ESC/flowtrack/src/assets/symbol/acOf2.svg"
       inkscape:export-xdpi="96"
       inkscape:export-ydpi="96"><ellipse
         style="fill:#aa0000;stroke:none;stroke-width:0.27679"
         id="path164-1"
         cx="-26.015985"
         cy="205.32986"
         rx="27.809277"
         ry="26.625156" /><path
         style="fill:#999999;stroke:none;stroke-width:0.250724px;stroke-linecap:butt;stroke-linejoin:miter;stroke-opacity:1"
         d="m -18.604207,188.15332 -6.04819,14.9887 7.40943,0.0742 c -4.01216,6.83086 -8.07749,13.62854 -12.12623,20.43652 l 1.23902,-15.06414 -3.45077,0.0627 0.15132,-20.49978 c 4.27513,0.0146 8.55027,0.007 12.82542,9.9e-4 z"
         id="path1434-2"
         sodipodi:nodetypes="cccccccc" /></g><g
       id="g2014"
       transform="translate(-133.56482,-102.71579)"
       inkscape:export-filename="../Documentos/ESC/flowtrack/src/assets/symbol/dcOn.svg"
       inkscape:export-xdpi="96"
       inkscape:export-ydpi="96"><ellipse
         style="fill:#00ff00;stroke:none;stroke-width:0.27679"
         id="path164-7"
         cx="-32.237614"
         cy="295.57468"
         rx="27.809277"
         ry="26.625156" /><rect
         style="fill:#00ff00;stroke:none;stroke-width:0.208745"
         id="rect281-9"
         width="2.9755108"
         height="12.08111"
         x="-33.669277"
         y="253.82474"
         ry="0.85012293" /><rect
         style="fill:#00ff00;stroke:none;stroke-width:0.208745"
         id="rect281-3-2"
         width="2.9755108"
         height="12.08111"
         x="-33.590656"
         y="326.78433"
         ry="0.85012293" /><rect
         style="fill:#00ff00;stroke:none;stroke-width:0.208745"
         id="rect281-6-0"
         width="2.9755108"
         height="12.08111"
         x="-297.59509"
         y="-1.0127965"
         ry="0.85012293"
         transform="rotate(-90)" /><rect
         style="fill:#00ff00;stroke:none;stroke-width:0.208745"
         id="rect281-6-5-2"
         width="2.9755108"
         height="12.08111"
         x="-297.45511"
         y="-75.876671"
         ry="0.85012293"
         transform="rotate(-90)" /><rect
         style="fill:#00ff00;stroke:none;stroke-width:0.208745"
         id="rect281-6-3-3"
         width="2.9755108"
         height="12.08111"
         x="189.11966"
         y="186.03564"
         ry="0.85012293"
         transform="rotate(45.764338)" /><rect
         style="fill:#00ff00;stroke:none;stroke-width:0.208745"
         id="rect281-6-3-5-7"
         width="2.9755108"
         height="12.08111"
         x="186.00661"
         y="260.72546"
         ry="0.85012293"
         transform="rotate(45.764338)" /><rect
         style="fill:#00ff00;stroke:none;stroke-width:0.208745"
         id="rect281-6-3-6-5"
         width="2.9755108"
         height="12.08111"
         x="-226.67561"
         y="220.2045"
         ry="0.85012293"
         transform="rotate(-44.235662)" /><rect
         style="fill:#00ff00;stroke:none;stroke-width:0.208745"
         id="rect281-6-3-6-9-9"
         width="2.9755108"
         height="12.08111"
         x="-231.84274"
         y="146.35732"
         ry="0.85012293"
         transform="rotate(-44.235662)" /><text
         xml:space="preserve"
         style="font-style:normal;font-weight:normal;font-size:21.6838px;line-height:1.25;font-family:sans-serif;fill:#ff6600;fill-opacity:1;stroke:none;stroke-width:0.542096"
         x="-54.973446"
         y="265.70761"
         id="text1871"
         transform="scale(0.87282442,1.1457058)"><tspan
           sodipodi:role="line"
           id="tspan1869"
           style="font-style:normal;font-variant:normal;font-weight:bold;font-stretch:normal;font-family:sans-serif;-inkscape-font-specification:'sans-serif Bold';fill:#ff6600;stroke:none;stroke-width:0.542096"
           x="-54.973446"
           y="265.70761">ON</tspan></text></g><g
       id="g1963"
       transform="translate(198.76014,-59.978627)"
       inkscape:export-filename="../Documentos/ESC/flowtrack/src/assets/symbol/dcOff.svg"
       inkscape:export-xdpi="96"
       inkscape:export-ydpi="96"><ellipse
         style="fill:#aa0000;stroke:none;stroke-width:0.27679"
         id="path164-7-8"
         cx="-87.958832"
         cy="204.29944"
         rx="27.809277"
         ry="26.625156" /><text
         xml:space="preserve"
         style="font-style:normal;font-weight:normal;font-size:21.6838px;line-height:1.25;font-family:sans-serif;fill:#808080;fill-opacity:1;stroke:none;stroke-width:0.542096"
         x="-126.15569"
         y="185.62209"
         id="text1871-1"
         transform="scale(0.87282442,1.1457058)"><tspan
           sodipodi:role="line"
           id="tspan1869-9"
           style="font-style:normal;font-variant:normal;font-weight:bold;font-stretch:normal;font-family:sans-serif;-inkscape-font-specification:'sans-serif Bold';fill:#808080;stroke:none;stroke-width:0.542096"
           x="-126.15569"
           y="185.62209">OFF</tspan></text></g></g></svg>
