<svg
   width="57.508369mm"
   height="52.156876mm"
   viewBox="0 0 57.508369 52.156876"
   version="1.1"
   id="svg5"
   xml:space="preserve"
   xmlns:inkscape="http://www.inkscape.org/namespaces/inkscape"
   xmlns:sodipodi="http://sodipodi.sourceforge.net/DTD/sodipodi-0.dtd"
   xmlns="http://www.w3.org/2000/svg"
   xmlns:svg="http://www.w3.org/2000/svg"><sodipodi:namedview
     id="namedview7"
     pagecolor="#ffffff"
     bordercolor="#666666"
     borderopacity="1.0"
     inkscape:showpageshadow="2"
     inkscape:pageopacity="0.0"
     inkscape:pagecheckerboard="0"
     inkscape:deskcolor="#d1d1d1"
     inkscape:document-units="mm"
     showgrid="true"><inkscape:grid
       type="xygrid"
       id="grid9" /></sodipodi:namedview><defs
     id="defs2" /><g
     inkscape:label="Camada 1"
     inkscape:groupmode="layer"
     id="layer1"
     transform="translate(-69.669641,-81.185026)"><path
       id="rect400"
       style="fill:#000000;stroke:none;stroke-width:0.0876945"
       d="m 70.339132,123.15622 h 2.493465 l 3.690609,5.5319 9.764022,-0.0563 0.02771,-3.15917 c 0,0 -17.310656,-1.66058 -16.62548,-21.75621 0.685176,-20.095635 21.853791,-22.579965 28.22588,-22.530715 5.622552,0.0434 28.841192,2.52155 29.243252,22.401885 0.40206,19.88033 -16.37385,22.29287 -16.45976,21.81227 l -0.0144,3.31256 9.78618,0.0381 3.84662,-5.59494 2.52689,10e-4 c 0.18498,7e-5 0.33389,0.14892 0.33389,0.3339 v 9.5175 c 0,0.18498 -0.14891,0.3339 -0.33389,0.3339 l -24.01684,-0.0108 -0.0478,-8.76178 c -0.0232,0.0933 16.03928,-4.17745 15.00179,-20.48297 -1.03749,-16.305524 -11.85914,-19.241604 -19.106042,-18.909584 -7.575957,0.3471 -18.789002,2.61864 -19.379813,18.462224 -0.590811,15.84358 14.74083,21.06359 14.86728,20.81479 l -0.03524,8.86971 -23.788295,0.0184 c -0.184978,1.4e-4 -0.333896,-0.14892 -0.333896,-0.3339 v -9.5175 c 0,-0.18498 0.148918,-0.3339 0.333896,-0.3339 z"
       sodipodi:nodetypes="scccczszccccsssscczszccsssss" /></g></svg>
